<svg width="83" height="84" viewBox="0 0 83 84" fill="none" xmlns="http://www.w3.org/2000/svg">
<path d="M67.7778 14.0143C68.7115 13.2523 69.9468 14.4877 69.1848 15.4213L48.134 41.2141C47.8337 41.5821 47.8337 42.1106 48.134 42.4787L69.1848 68.2714C69.9468 69.2051 68.7115 70.4404 67.7778 69.6784L41.9851 48.6276C41.6171 48.3273 41.0885 48.3273 40.7205 48.6276L14.9278 69.6784C13.9941 70.4404 12.7587 69.2051 13.5207 68.2714L34.5715 42.4787C34.8719 42.1106 34.8719 41.5821 34.5715 41.2141L13.5208 15.4214C12.7587 14.4877 13.9941 13.2523 14.9278 14.0143L40.7205 35.0651C41.0885 35.3655 41.6171 35.3655 41.9851 35.0651L67.7778 14.0143Z" fill="#E1E1E1"/>
</svg>
